<?xml version="1.0" encoding="utf-8"?>
<!-- Generator: Adobe Illustrator 25.4.1, SVG Export Plug-In . SVG Version: 6.00 Build 0)  -->
<svg version="1.1" id="Layer_1" xmlns="http://www.w3.org/2000/svg" xmlns:xlink="http://www.w3.org/1999/xlink" x="0px" y="0px"
	 viewBox="0 0 445.94 367.13" style="enable-background:new 0 0 445.94 367.13;" xml:space="preserve">
<g id="NEn4Ws.tif">
	<g>
		<path d="M-346.01,267.02c0,30.55,0,61.1,0,91.65c0,3.88-0.01,3.89-3.85,3.89c-25.87,0-51.74,0-77.62,0c-4.41,0-4.41,0-4.41-4.32
			c0-59.76,0-119.53,0-179.29c0-1.08,0-2.16,0-3.25c0-4.44,0-4.44-4.32-4.44c-14.23,0-28.45,0-42.68,0
			c-6.41,0-12.81,0.02-19.22,0.01c-3.09,0-3.21-0.12-3.21-3.26c-0.01-24.31-0.01-48.61,0-72.92c0-3.21,0.1-3.29,3.43-3.29
			c20.71-0.01,41.43-0.01,62.14-0.02c3.81,0,3.84-0.01,3.84-3.91c0-16.98-0.21-33.96,0.04-50.94c0.17-11.63,0.49-23.27,2.85-34.76
			c3.43-16.7,10.06-31.91,21.13-44.91c10.13-11.89,22.73-20.38,37.5-25.58c12.83-4.52,26.06-6.56,39.65-6.72
			c18.16-0.21,36.2,1.26,54.15,3.89c2.47,0.36,4.93,0.76,7.41,0.98c1.91,0.17,2.52,1.07,2.5,2.91c-0.07,7.41-0.05,14.82-0.05,22.22
			c0,13.15,0.02,26.3,0.02,39.45c0,3.47-0.06,3.53-3.45,3.54c-11.65,0.02-23.3-0.2-34.94,0.1c-9.9,0.26-19.21,2.78-27.18,9.13
			c-7.39,5.88-10.84,13.91-12.67,22.85c-0.7,3.43-1.09,6.9-1.09,10.41c-0.01,16.15,0.04,32.3-0.04,48.44
			c-0.01,2.37,0.85,2.96,3.06,2.95c22.79-0.06,45.59-0.04,68.38-0.05c0.75,0,1.5,0.03,2.25,0c1.81-0.07,2.27,0.75,1.99,2.49
			c-1.36,8.46-2.63,16.93-3.92,25.4c-2.45,16.03-4.91,32.06-7.35,48.1c-0.52,3.43-0.58,3.5-4.09,3.5c-18.88,0-37.77,0-56.65,0
			c-3.6,0-3.61,0.01-3.61,3.6C-346.01,205.59-346.01,236.3-346.01,267.02z"/>
	</g>
</g>
<g id="HFnPoh.tif">
	<g>
		<path d="M135.95,284.06c-5.87-0.44-11.61-1.23-17.29-2.48c-13.56-3-25.69-8.92-36.51-17.66c-13.36-10.8-22.73-24.35-28.56-40.44
			c-0.82-2.26,0.6-1.99,1.83-1.78c6.02,1.02,12.09,1.07,18.17,1.01c6.19-0.06,12.23-1.14,18.33-2.92c-1.11-0.3-2.23-0.58-3.34-0.89
			c-14.01-3.91-26.51-10.47-37.31-20.37c-12.79-11.74-21.52-25.88-26.34-42.5c-2.24-7.73-3.01-15.66-3.29-23.65
			c-0.06-1.66,0.91-1.22,1.8-0.81c2.79,1.3,5.53,2.72,8.37,3.91c7.88,3.3,16.13,5.23,24.6,6.25c1.22,0.15,2.48,0.25,3.89-0.19
			c-0.46-1.33-1.7-1.79-2.62-2.49c-11.3-8.64-20.36-19.19-26.36-32.09C18.74,79.89,19.17,52.87,32.39,26.1
			c2.03-4.11,2.1-4.06,5.06-0.52C52.18,43.16,69.04,58.4,87.94,71.37c31.59,21.68,66.37,35.45,104.13,41.71
			c7.95,1.32,15.98,2.18,24.03,2.68c2.92,0.18,3.01,0,2.52-2.87c-4.15-24.11,0.13-46.59,13.57-67.05
			c8.75-13.32,20.46-23.47,34.8-30.62c13.89-6.93,28.62-9.91,43.98-9.2c21.82,1.01,40.95,8.88,56.95,23.94
			c0.79,0.74,1.57,1.49,2.33,2.26c1.4,1.42,2.94,1.79,4.98,1.36c18.13-3.88,35.23-10.43,51.32-19.61c0.71-0.41,1.44-0.8,2.73-1.51
			c-3.32,10.43-8.1,19.41-14.45,27.57c-6.37,8.19-13.9,15.15-22.57,21.06c16.8-1.31,32.6-6.31,48.21-12.7
			c0.34,1.39-0.43,2.01-0.92,2.69c-11.54,15.93-24.91,30.1-40.76,41.83c-1.67,1.24-2.25,2.6-2.18,4.62
			c0.6,16.49-0.4,32.9-3.16,49.18c-4.07,24.01-11.23,47.06-21.61,69.11c-10.4,22.12-23.47,42.48-39.5,60.96
			c-14.09,16.25-29.93,30.53-47.77,42.51c-22.22,14.92-46.29,25.91-72.13,32.92c-14.07,3.82-28.41,6.37-42.93,7.79
			c-13.75,1.35-27.58,1.78-41.36,1c-31.44-1.79-61.71-8.7-90.48-21.75c-10.62-4.82-20.93-10.22-30.81-16.44
			c-0.6-0.38-1.33-0.63-1.86-1.83C53.53,325.34,97.3,313.74,135.95,284.06z"/>
	</g>
</g>
</svg>
